<svg width="64" height="64" viewBox="0 0 64 64" fill="#000">
  <path d="M63.88.12h-.105V0H.075v.12H0v63.67h.09v.09h63.7v-.09h.09V.12zm-4.072 59.688H4.071V4.071h55.737v55.737z">
  </path>
  <path
    d="M11.463 32.255l.54-8.263h11.493v2.93h-8.383l-.27 3.41.18.03c.886-.781 1.382-.916 2.885-.916h2.073c1.517 0 2.313.255 2.93.871.796.796 1.096 2.043 1.096 4.132 0 2.764-.315 3.725-1.112 4.567-.54.57-1.382.886-2.794.886h-4.868c-1.457 0-2.448-.255-3.004-.766-.721-.751-1.052-1.788-1.052-4.342l3.56-.03c.03 1.292.211 1.788.391 1.953.18.195.496.27 1.232.27h2.48c.615 0 .9-.09 1.08-.255.211-.21.391-.676.391-2.088s-.18-1.863-.39-2.073c-.18-.166-.45-.256-1.082-.256h-1.592c-1.067 0-1.728.226-2.705.841l-3.08-.9zm21.964-8.263c1.758 0 2.584.21 3.275.841.931.842 1.698 2.494 1.698 7.107 0 4.582-.767 6.25-1.698 7.106-.676.616-1.517.841-3.275.841H29.73c-1.758 0-2.569-.225-3.245-.841-.946-.857-1.698-2.524-1.698-7.106 0-4.613.752-6.265 1.698-7.107.676-.63 1.502-.84 3.245-.84h3.696zm-2.885 2.93c-.841 0-1.111.09-1.292.255-.255.225-.616.841-.616 4.778 0 3.936.36 4.537.616 4.747.18.18.451.255 1.292.255h2.074c.856 0 1.111-.075 1.322-.255.255-.21.616-.811.616-4.747 0-3.937-.36-4.537-.616-4.778-.21-.165-.451-.255-1.322-.255h-2.074zm17.172-2.93c1.758 0 2.584.21 3.275.841.932.842 1.698 2.494 1.698 7.107 0 4.582-.766 6.25-1.698 7.106-.676.616-1.517.841-3.275.841h-3.696c-1.757 0-2.569-.225-3.245-.841-.946-.857-1.697-2.524-1.697-7.106 0-4.613.75-6.265 1.697-7.107.676-.63 1.503-.84 3.245-.84h3.696zm-2.884 2.93c-.842 0-1.112.09-1.292.255-.256.225-.616.841-.616 4.778 0 3.936.36 4.537.616 4.747.18.18.45.255 1.292.255h2.073c.856 0 1.112-.075 1.307-.255.255-.21.616-.811.616-4.747 0-3.937-.36-4.537-.616-4.778-.195-.165-.45-.255-1.307-.255H44.83z">
  </path>
</svg>