<svg xmlns="http://www.w3.org/2000/svg" viewBox="0 0 203.68 194.39">
  <g>
    <path fill="#231f20" d=" M156 30.32a5.67 5.67 0 0 0-5.65 5.68v89.37a5.66 5.66 0 1 0 11.32 0V36a5.67 5.67 0 0 0-5.67-5.68ZM198 0a5.67
    5.67 0 0 0-5.66 5.66v32.6a5.66 5.66 0 1 0 11.32 0V5.66A5.67 5.67 0 0 0 198 0Zm-86.26 104.18a5.67 5.67 0 0 0-5.66
    5.66v78.89a5.66 5.66 0 0 0 11.32 0v-78.89a5.67 5.67 0 0 0-5.66-5.66ZM177.07 0a5.67 5.67 0 0 0-5.66 5.66V80a5.66 5.66
    0 0 0 11.32 0V5.66A5.67 5.67 0 0 0 177.07 0Zm-42 77.33A5.67 5.67 0 0 0 129.4 83v78.3a5.66 5.66 0 0 0 11.32 0V83a5.67
    5.67 0 0 0-5.66-5.67ZM26.61 0A5.66 5.66 0 0 0 21 5.66V80a5.66 5.66 0 0 0 11.32 0V5.66A5.67 5.67 0 0 0 26.61 0ZM5.66
    0A5.67 5.67 0 0 0 0 5.66v32.6a5.66 5.66 0 1 0 11.32 0V5.66A5.67 5.67 0 0 0 5.66 0Zm62.75 77.33A5.67 5.67 0 0 0 62.75
    83v78.3a5.66 5.66 0 0 0 11.32 0V83a5.67 5.67 0 0 0-5.66-5.67Zm21.37 26.85a5.67 5.67 0 0 0-5.66 5.66v78.89a5.66 5.66
    0 0 0 11.32 0v-78.89a5.67 5.67 0 0 0-5.66-5.66ZM47.67 30.32A5.67 5.67 0 0 0 42 36v89.37a5.66 5.66 0 1 0 11.32
    0V36a5.67 5.67 0 0 0-5.65-5.68Z" />
  </g>
</svg>