<?xml version="1.0" standalone="no"?>
<!DOCTYPE svg PUBLIC "-//W3C//DTD SVG 20010904//EN"
 "http://www.w3.org/TR/2001/REC-SVG-20010904/DTD/svg10.dtd">
<svg version="1.0" xmlns="http://www.w3.org/2000/svg"
 width="816.000000pt" height="816.000000pt" viewBox="0 0 816.000000 816.000000"
 preserveAspectRatio="xMidYMid meet">
<metadata>
Created by potrace 1.14, written by Peter Selinger 2001-2017
</metadata>
<g transform="translate(0.000000,816.000000) scale(0.100000,-0.100000)"
fill="#000000" stroke="none">
<path d="M145 7955 c-50 -20 -121 -94 -135 -143 -6 -24 -10 -276 -10 -728 1
-779 -3 -743 77 -813 119 -105 290 -67 356 79 20 44 21 63 21 745 -1 690 -1
701 -21 740 -32 60 -88 113 -132 123 -52 11 -120 10 -156 -3z"/>
<path d="M975 7949 c-83 -41 -127 -107 -131 -199 -1 -31 -3 -60 -4 -65 -2 -6
-1 -12 0 -15 6 -16 4 -70 -3 -70 -5 0 -5 -5 -1 -12 10 -16 11 -68 1 -68 -5 0
-5 -5 -1 -12 10 -16 11 -68 1 -68 -5 0 -5 -5 -1 -12 9 -15 9 -193 -1 -207 -3
-6 -2 -11 2 -11 9 0 10 -66 1 -75 -3 -4 -2 -21 2 -39 4 -19 4 -40 -1 -47 -4
-7 -5 -17 -2 -23 9 -14 9 -66 0 -66 -5 0 -5 -5 -1 -12 9 -15 9 -193 -1 -207
-3 -6 -2 -11 2 -11 5 0 7 -17 6 -37 -4 -51 -4 -45 -2 -159 1 -56 -1 -107 -5
-113 -4 -6 -3 -11 1 -11 5 0 7 -17 6 -37 -3 -39 -3 -82 1 -118 1 -11 -1 -30
-5 -41 -4 -12 -5 -25 -2 -28 10 -9 10 -69 1 -88 -5 -11 -5 -18 1 -18 7 0 7 -8
1 -24 -5 -13 -6 -27 -3 -30 10 -10 10 -69 1 -89 -5 -9 -6 -23 -2 -29 10 -16
11 -68 1 -68 -5 0 -5 -5 -1 -12 9 -15 9 -193 -1 -207 -3 -6 -2 -11 2 -11 9 0
10 -66 1 -75 -3 -4 -2 -21 2 -39 4 -19 4 -40 -1 -47 -4 -7 -5 -17 -2 -23 9
-14 9 -66 0 -66 -5 0 -5 -5 -1 -12 10 -16 12 -69 3 -94 -4 -12 -5 -25 -2 -28
10 -9 10 -69 1 -88 -5 -11 -5 -18 1 -18 7 0 7 -9 1 -25 -5 -13 -6 -26 -2 -29
4 -2 6 -24 4 -48 -2 -44 -2 -87 2 -123 1 -11 -1 -35 -5 -52 -4 -18 -4 -33 0
-33 4 0 6 -21 5 -47 -3 -53 30 -130 69 -165 119 -104 302 -64 365 80 14 33 16
188 16 1566 1 1184 -2 1538 -11 1571 -14 48 -63 104 -114 131 -49 26 -144 27
-194 3z"/>
<path d="M7049 7966 c-3 -3 -15 -7 -26 -9 -58 -9 -136 -94 -149 -162 -4 -22
-7 -724 -7 -1560 1 -1386 2 -1523 17 -1558 63 -145 252 -184 365 -75 37 35 89
138 70 138 -6 0 -8 4 -4 10 5 8 10 247 5 260 -6 16 -6 51 0 55 8 5 5 73 -3 81
-3 4 -2 16 2 28 9 24 8 67 -2 83 -4 7 -4 14 1 17 6 4 8 61 2 61 -6 0 -5 47 0
50 8 5 5 73 -3 81 -3 4 -2 16 2 28 9 24 8 67 -2 83 -4 7 -4 14 1 17 6 4 8 61
2 61 -6 0 -5 47 0 50 8 5 5 73 -3 81 -3 4 -2 16 2 28 9 24 8 67 -2 83 -4 7 -4
14 1 17 6 4 8 61 2 61 -6 0 -5 47 0 50 8 5 5 73 -3 81 -3 4 -2 16 2 28 7 18 7
70 1 86 -1 3 -1 10 0 15 5 23 1 325 -4 334 -4 5 -2 12 2 15 10 6 8 73 -1 82
-3 4 -2 16 2 28 6 17 7 81 1 81 -6 0 -5 47 0 50 8 5 5 73 -3 81 -3 4 -2 16 2
28 6 17 7 81 1 81 -6 0 -5 47 0 50 6 4 5 68 -1 85 -1 3 0 10 1 15 2 11 2 397
0 405 -6 19 -5 52 1 55 4 3 5 22 2 42 -4 34 -4 47 -1 88 5 61 -73 171 -139
196 -39 15 -124 25 -134 15z"/>
<path d="M7873 7960 c-13 -5 -23 -7 -23 -4 0 6 -57 -33 -81 -56 -17 -16 -50
-74 -57 -100 -2 -8 -4 -325 -5 -704 -2 -758 -3 -748 59 -811 63 -65 146 -88
232 -64 59 16 133 87 150 144 8 30 12 225 12 731 l0 690 -29 60 c-29 57 -57
82 -121 110 -33 13 -109 16 -137 4z"/>
<path d="M1861 6748 c-25 -4 -48 -13 -51 -19 -4 -6 -11 -10 -15 -8 -18 5 -86
-77 -99 -120 -10 -36 -13 -394 -12 -1881 l1 -1835 22 -40 c44 -83 117 -125
209 -121 102 4 175 59 207 152 11 32 13 362 12 1874 -1 2018 4 1858 -63 1932
-58 62 -120 82 -211 66z"/>
<path d="M6188 6747 c-21 -5 -38 -13 -38 -17 0 -4 -10 -11 -22 -14 -29 -8 -88
-85 -97 -128 -4 -18 -7 -859 -7 -1868 l1 -1835 27 -46 c57 -97 153 -137 261
-108 57 15 101 50 134 107 l28 47 1 1845 c1 1309 -2 1853 -10 1871 -49 116
-160 174 -278 146z"/>
<path d="M2645 4846 c-59 -27 -87 -56 -112 -111 -16 -38 -17 -140 -19 -1655
-1 -888 2 -1619 6 -1625 4 -5 10 -22 14 -38 8 -33 76 -104 114 -118 54 -21 81
-24 129 -15 79 15 132 55 167 125 l23 46 0 1615 c0 1593 0 1615 -20 1663 -49
117 -185 168 -302 113z"/>
<path d="M5320 4851 c-56 -25 -101 -73 -119 -127 -15 -45 -16 -188 -16 -1664
l0 -1615 27 -45 c14 -25 36 -53 47 -62 32 -27 94 -56 113 -53 10 2 20 -1 23
-5 3 -5 19 -5 35 0 17 5 31 8 33 8 1 -1 13 2 27 7 42 12 88 53 117 103 l28 47
1 1615 c1 1282 -2 1623 -12 1657 -15 51 -63 105 -113 129 -48 24 -146 27 -191
5z"/>
<path d="M3546 3788 c-9 -5 -16 -6 -16 -3 0 11 -74 -37 -99 -64 -13 -14 -32
-44 -42 -66 -18 -38 -18 -108 -19 -1666 0 -1752 -3 -1654 50 -1722 13 -16 41
-40 64 -55 34 -22 52 -27 111 -27 106 1 167 40 208 136 l23 54 -1 1620 c-1
1515 -2 1623 -19 1660 -19 44 -68 95 -114 119 -36 18 -123 27 -146 14z"/>
<path d="M4426 3788 c-9 -5 -16 -6 -16 -3 0 12 -74 -37 -102 -67 -62 -65 -59
33 -56 -1748 l3 -1625 23 -46 c50 -97 183 -145 282 -101 72 31 123 89 136 153
4 19 7 756 8 1639 1 1750 4 1657 -54 1723 -39 45 -101 76 -157 80 -28 2 -58 0
-67 -5z"/>
</g>
</svg>
