<svg width="35" height="35" viewBox="0 0 35 35" fill="none" xmlns="http://www.w3.org/2000/svg">
<g clip-path="url(#clip0)">
<path d="M36.667 0H-0.833008V35H36.667V0Z" fill="#3F9C35"/>
<path d="M36.667 0H-0.833008V23.3333H36.667V0Z" fill="#ED2939"/>
<path d="M36.667 0H-0.833008V11.6667H36.667V0Z" fill="#00B9E4"/>
<path d="M16.667 22.5C19.4284 22.5 21.667 20.2614 21.667 17.5C21.667 14.7386 19.4284 12.5 16.667 12.5C13.9056 12.5 11.667 14.7386 11.667 17.5C11.667 20.2614 13.9056 22.5 16.667 22.5Z" fill="white"/>
<path d="M17.9163 21.6666C20.4476 21.6666 22.4997 19.8011 22.4997 17.4999C22.4997 15.1987 20.4476 13.3333 17.9163 13.3333C15.385 13.3333 13.333 15.1987 13.333 17.4999C13.333 19.8011 15.385 21.6666 17.9163 21.6666Z" fill="#ED2939"/>
<path d="M22.9167 15L23.4749 16.5692L24.9787 15.8546L24.2642 17.3584L25.8333 17.9167L24.2642 18.4749L24.9787 19.9799L23.4749 19.2642L22.9167 20.8333L22.3584 19.2642L20.8546 19.9788L21.5692 18.4749L20 17.9167L21.5692 17.3584L20.8546 15.8534L22.3584 16.5692L22.9167 15Z" fill="white"/>
</g>
<defs>
<clipPath id="clip0">
<rect width="35" height="35" rx="17.5" fill="white"/>
</clipPath>
</defs>
</svg>
