<svg xmlns="http://www.w3.org/2000/svg" version="1.2" baseProfile="tiny-ps" viewBox="0 0 898 116" width="109"
  height="29">
  <style>
    tspan {
      white-space: pre
    }
  </style>
  <g id="Layer 1">
    <g id="&lt;Group&gt;">
      <path fill="#2c2e35"
        d="M483.69 -318.53C476.82 -318.53 471.23 -312.94 471.23 -306.07L471.23 -100.61C471.23 -93.74 476.82 -88.15 483.69 -88.15C490.56 -88.15 496.15 -93.74 496.15 -100.61L496.15 -306.07C496.15 -312.94 490.56 -318.53 483.69 -318.53ZM530.98 -441.87C524.11 -441.87 518.52 -436.28 518.52 -429.41L518.52 -169.67C518.52 -162.8 524.11 -157.21 530.98 -157.21C537.85 -157.21 543.44 -162.8 543.44 -169.67L543.44 -429.41C543.44 -436.28 537.85 -441.87 530.98 -441.87ZM625.87 -521.42C618.99 -521.42 613.4 -515.83 613.4 -508.96L613.4 -378.61C613.4 -371.74 618.99 -366.15 625.87 -366.15C632.73 -366.15 638.32 -371.74 638.32 -378.61L638.32 -508.96C638.32 -515.83 632.73 -521.42 625.87 -521.42ZM578.58 -521.42C571.71 -521.42 566.12 -515.83 566.12 -508.96L566.12 -264.56C566.12 -257.69 571.71 -252.1 578.58 -252.1C585.45 -252.1 591.04 -257.69 591.04 -264.56L591.04 -508.96C591.04 -515.83 585.45 -521.42 578.58 -521.42ZM669.95 -521.42C663.08 -521.42 657.49 -515.83 657.49 -508.96L657.49 -480.85C657.49 -473.98 663.08 -468.39 669.95 -468.39C676.82 -468.39 682.41 -473.98 682.41 -480.85L682.41 -508.96C682.41 -515.83 676.82 -521.42 669.95 -521.42ZM389.69 -441.87C382.82 -441.87 377.23 -436.28 377.23 -429.41L377.23 -169.67C377.23 -162.8 382.82 -157.21 389.69 -157.21C396.56 -157.21 402.15 -162.8 402.15 -169.67L402.15 -429.41C402.15 -436.28 396.56 -441.87 389.69 -441.87ZM436.43 -318.53C429.56 -318.53 423.97 -312.94 423.97 -306.07L423.97 -100.61C423.97 -93.74 429.56 -88.15 436.43 -88.15C443.3 -88.15 448.89 -93.74 448.89 -100.61L448.89 -306.07C448.89 -312.94 443.3 -318.53 436.43 -318.53ZM247.84 -521.42C240.97 -521.42 235.38 -515.83 235.38 -508.96L235.38 -480.85C235.38 -473.98 240.97 -468.39 247.84 -468.39C254.71 -468.39 260.3 -473.98 260.3 -480.85L260.3 -508.96C260.3 -515.83 254.71 -521.42 247.84 -521.42ZM294.8 -521.42C287.93 -521.42 282.34 -515.83 282.34 -508.96L282.34 -378.61C282.34 -371.74 287.93 -366.15 294.8 -366.15C301.67 -366.15 307.26 -371.74 307.26 -378.61L307.26 -508.96C307.26 -515.83 301.67 -521.42 294.8 -521.42ZM342.09 -521.42C335.22 -521.42 329.63 -515.83 329.63 -508.96L329.63 -264.56C329.63 -257.69 335.22 -252.1 342.09 -252.1C348.96 -252.1 354.55 -257.69 354.55 -264.56L354.55 -508.96C354.55 -515.83 348.96 -521.42 342.09 -521.42Z" />
      <path fill-rule="evenodd" fill="#2c2e35"
        d="M265.01 6.15L278.71 6.15L278.71 111.37L265.01 111.37L265.01 6.15ZM224.37 19.6C234.19 30.16 239.18 43.32 239.18 58.72C239.18 73.98 234.21 87.12 224.41 97.77C214.56 108.48 202.37 113.9 188.18 113.9C173.83 113.9 161.54 108.5 151.67 97.85C141.85 87.24 136.87 74.24 136.87 59.2C136.87 49.2 139.13 39.8 143.59 31.25C148.08 22.67 154.28 15.85 162.04 10.97C169.82 6.09 178.36 3.61 187.42 3.61C202.07 3.61 214.5 8.99 224.37 19.6ZM225.17 58.69C225.17 51.09 223.52 44.13 220.27 38.01C217.03 31.92 212.41 26.98 206.53 23.32C200.67 19.67 194.38 17.82 187.83 17.82C181.41 17.82 175.23 19.67 169.46 23.31C163.66 26.97 159.07 31.97 155.81 38.18C152.53 44.41 150.87 51.47 150.87 59.17C150.87 70.52 154.54 80.23 161.77 88.02C169.05 95.88 177.58 99.7 187.83 99.7C194.6 99.7 200.94 97.89 206.7 94.34C212.46 90.77 217.03 85.81 220.26 79.62C223.52 73.38 225.17 66.34 225.17 58.69ZM103.04 6.15L117.9 6.15L75.7 111.37L70.69 111.37L29.09 6.15L43.94 6.15L73.25 80.29L103.04 6.15ZM389.6 82.46L400.26 91.24L399.05 92.91C394.23 99.57 388.13 104.79 380.92 108.43C373.71 112.06 365.56 113.9 356.71 113.9C339.83 113.9 326.31 107.7 316.52 95.46C308.36 85.19 304.23 72.65 304.23 58.18C304.23 42.9 309.24 29.86 319.14 19.41C329.06 8.93 341.66 3.61 356.58 3.61C365.58 3.61 373.84 5.58 381.12 9.45C388.4 13.34 394.45 18.85 399.1 25.84L400.19 27.49L389.51 36.38L388.14 34.43C384.32 29.04 379.68 24.9 374.36 22.13C369.04 19.36 363.1 17.95 356.71 17.95C349.75 17.95 343.21 19.8 337.27 23.42C331.32 27.06 326.64 32.01 323.38 38.14C320.09 44.3 318.42 51.34 318.42 59.07C318.42 70.72 322.14 80.56 329.48 88.33C336.88 96.16 345.97 99.97 357.28 99.97C369.69 99.97 379.81 94.82 388.21 84.22L389.6 82.46ZM888.7 6.15L888.7 20.42L855.22 20.42L855.22 111.37L840.99 111.37L840.99 20.42L805.52 20.42L805.52 6.15L888.7 6.15ZM426.69 6.15L484.35 6.15L484.35 20.42L440.38 20.42L440.38 47.61L483.97 47.61L483.97 61.89L440.38 61.89L440.38 97.09L483.97 97.09L483.97 111.37L426.69 111.37L426.69 6.15ZM680.97 19.57C691.16 30.14 696.33 43.31 696.33 58.72C696.33 74 691.17 87.14 681.01 97.8C670.82 108.49 658.21 113.9 643.54 113.9C628.7 113.9 616 108.51 605.79 97.88C595.6 87.27 590.43 74.25 590.43 59.2C590.43 49.19 592.78 39.78 597.41 31.22C602.05 22.64 608.48 15.82 616.52 10.95C624.56 6.08 633.39 3.61 642.76 3.61C657.9 3.61 670.75 8.98 680.97 19.57ZM681.97 58.69C681.97 51.1 680.26 44.15 676.9 38.04C673.54 31.95 668.74 27 662.64 23.34C656.55 19.68 650 17.82 643.18 17.82C636.5 17.82 630.07 19.67 624.06 23.33C618.04 26.99 613.28 32 609.9 38.2C606.51 44.43 604.79 51.49 604.79 59.17C604.79 70.51 608.59 80.2 616.08 87.99C623.65 95.87 632.51 99.7 643.18 99.7C650.22 99.7 656.83 97.89 662.81 94.32C668.8 90.74 673.53 85.79 676.89 79.59C680.26 73.36 681.97 66.33 681.97 58.69ZM724.65 6.15L789.31 6.15L789.31 20.42L738.68 20.42L738.68 47.61L775.31 47.61L775.31 61.89L738.68 61.89L738.68 111.37L724.65 111.37L724.65 6.15ZM523.37 97.23L570.43 97.23L570.43 111.37L509.33 111.37L509.33 6.15L523.37 6.15L523.37 97.23Z" />
    </g>
  </g>
</svg>