<svg version="1.1" id="layer" xmlns="http://www.w3.org/2000/svg" x="0" y="0" viewBox="-153 -46 652 652"
  style="enable-background:new -153-46 652 652" xml:space="preserve">
  <path fill="#e93d45" d="M31.1 274.8H10.7V312h20.4v-37.2zm-162.6 0h20.4v-37.2h-20.4v37.2z" />
  <path fill="#e93d45"
    d="M-44.5 274.8v8.1c.7 19.4 11.9 29.1 33.6 29.1h31.6v-16h-30.9c-1.8.1-3.6-.1-5.4-.6-1.7-.5-3.3-1.4-4.7-2.6-2.4-2.8-3.6-6.4-3.4-10-.1-2.1-.2-4.7-.2-8s0-5.9.2-7.8c-.1-1.8.2-3.7.8-5.4.6-1.7 1.6-3.3 2.9-4.7 2.9-2.4 6.6-3.5 10.3-3.2h30.6v-16.1h-31.1c-10.7 0-19 2.5-24.8 7.5-3 2.7-5.4 6-7 9.8-1.6 3.7-2.4 7.7-2.3 11.8-.1 2-.2 4.8-.2 8.1zm-11.6-8.2c-.3-9.2-3.4-16.5-9.4-21.5s-14.1-7.5-24.8-7.5h-31.1v15.9h30.6c3.7-.3 7.4.9 10.3 3.2 1.3 1.3 2.2 2.9 2.9 4.7.6 1.7.9 3.6.8 5.4.1 2 .2 4.6.2 7.8s0 5.9-.2 8c.2 3.7-1 7.4-3.5 10.2-1.4 1.2-3 2-4.7 2.6-1.7.5-3.5.8-5.3.6h-31.1v16h31.6c21.7 0 32.9-9.7 33.6-29.1v-8.1c.1-3.4.2-6.1.1-8.2zM62.7 298.1c-.2-.2-.3-.3-.4-.5-.1-.2-.1-.4-.1-.6v-44.1c0-.2 0-.5.1-.7.1-.2.2-.4.4-.6.1-.2.3-.3.5-.4.2-.1.4-.1.6-.1H82c5.7-.3 11.4 1.4 15.9 4.8 2 1.7 3.5 3.8 4.6 6.2 1.1 2.4 1.6 4.9 1.5 7.5V280c-.5 12.4-7.6 18.6-21.5 18.6H63.8c-.4-.1-.8-.2-1.1-.5zm19.4-9.7c1.2.1 2.3 0 3.4-.4 1.1-.3 2.1-.9 3-1.6 1.5-1.8 2.3-4.1 2.2-6.4 0-1.3.1-3 .1-5.1 0-2.1 0-3.8-.1-5 .1-1.2-.1-2.3-.5-3.5-.4-1.1-1-2.1-1.9-3-1.9-1.5-4.2-2.2-6.6-2.1h-6.5v27.1h6.9zm33.4 9.7c-.2-.2-.3-.3-.4-.5-.1-.2-.1-.4-.1-.6v-44.1c0-.5.2-.9.5-1.3.2-.2.4-.3.6-.4.2-.1.5-.1.7-.1h32.5c.2 0 .5 0 .7.1.2.1.4.2.6.4.2.2.3.4.4.6.1.2.1.5.1.7v6.7c0 .2 0 .5-.1.7-.1.2-.2.4-.4.5-.3.3-.8.5-1.3.5h-21.9v8.6h20.3c.2 0 .5 0 .7.1.2.1.4.2.6.4.2.2.3.4.4.6.1.2.1.4.1.7v6.2c0 .2 0 .5-.1.7-.1.2-.2.4-.4.6-.2.2-.4.3-.6.4-.2.1-.5.1-.7.1h-20.3v8.9h22.4c.2 0 .5 0 .7.1.2.1.4.2.6.4.2.2.3.4.4.6.1.2.1.5.1.7v6.7c0 .2 0 .5-.1.7-.1.2-.2.4-.4.6-.2.2-.4.3-.6.4-.2.1-.5.1-.7.1h-33.2c-.4-.3-.8-.5-1.1-.8zm47.5 0c-.2-.2-.3-.3-.4-.5-.1-.2-.1-.4-.1-.6v-44.1c0-.5.2-.9.5-1.3.2-.2.3-.3.6-.4.2-.1.4-.1.7-.1h32.6c.2 0 .5 0 .7.1.2.1.4.2.6.4.2.2.3.4.4.6s.1.5.1.7v6.7c0 .2 0 .5-.1.7-.1.2-.2.4-.4.6-.3.3-.8.5-1.3.5H175v8.6h20.3c.2 0 .5 0 .7.1.2.1.4.2.6.4.2.2.3.4.4.6.1.2.1.4.1.7v6.2c0 .2 0 .5-.1.7s-.2.4-.4.6c-.2.2-.4.3-.6.4-.2.1-.4.1-.7.1H175v8.9h22.4c.2 0 .5 0 .7.1.2.1.4.2.6.4.2.2.3.4.4.6.1.2.1.5.1.7v6.7c0 .2 0 .5-.1.7-.1.2-.2.4-.4.6-.2.2-.4.3-.6.4-.2.1-.4.1-.7.1h-33.1c-.3 0-.5 0-.7-.1-.3-.5-.5-.6-.6-.8zm47.5 0c-.2-.2-.3-.3-.4-.5-.1-.2-.1-.4-.1-.6v-44.1c0-.5.1-.9.5-1.3.2-.2.4-.3.6-.4.2-.1.4-.1.7-.1h19.6c5-.3 10 1.1 14.1 4 1.7 1.4 3.1 3.2 4 5.3.9 2 1.3 4.3 1.1 6.5.2 2.2-.2 4.4-1.1 6.4-.9 2-2.3 3.8-4 5.2-4.1 2.8-9.1 4.1-14.1 3.8h-7.9V297c0 .4-.2.9-.5 1.2-.2.2-.4.3-.6.4-.2.1-.5.1-.7.1h-9.9c-.5-.1-1-.3-1.3-.6zm20.5-25.6c1.6.1 3.2-.4 4.5-1.5.6-.6 1-1.2 1.3-2 .3-.7.4-1.5.3-2.3.1-1.6-.5-3.1-1.5-4.3-.6-.6-1.3-1-2.1-1.3-.8-.3-1.6-.4-2.5-.3h-7.8v11.7h7.8zm34.4 22c-1.9-1.7-3.5-3.8-4.5-6.2-1-2.4-1.6-4.9-1.5-7.5v-12.4c0-2.5.5-5 1.5-7.3s2.6-4.3 4.5-6c4.5-3.3 10-5 15.7-4.7 3.9-.1 7.8.7 11.5 2.1 2.9 1.1 5.5 3 7.5 5.4 1.6 1.9 2.6 4.3 2.7 6.7 0 .2 0 .4-.1.6-.1.2-.2.4-.3.5-.1.1-.3.3-.5.3-.2.1-.4.1-.6.1h-10.6c-.4 0-.7-.1-1.1-.2-.3-.2-.5-.4-.7-.7-.6-1.3-1.5-2.4-2.6-3.3-1.5-1-3.3-1.5-5.2-1.4-5.3 0-8.1 2.8-8.3 8.2v11.7c.2 5.6 2.9 8.6 8.4 8.6 2.3.1 4.6-.6 6.4-2 .8-.8 1.5-1.7 1.9-2.7.4-1 .6-2.1.5-3.3v-1h-6.2c-.2 0-.5 0-.7-.1-.2-.1-.4-.2-.6-.4-.2-.2-.3-.4-.4-.6-.1-.2-.1-.5-.1-.7v-5.4c0-.2 0-.5.1-.7.1-.2.2-.4.4-.6.2-.2.4-.3.6-.4.2-.1.4-.1.7-.1h17.6c.2 0 .5 0 .7.1.2.1.4.2.6.4.2.2.3.4.4.6.1.2.1.5.1.7v7.9c.1 3.5-.9 7-2.9 10-1.9 2.8-4.5 5-7.7 6.4-3.6 1.5-7.5 2.3-11.5 2.2-5.7.3-11.3-1.4-15.7-4.8zm49.1 3.6c-.2-.2-.3-.3-.4-.5-.1-.2-.1-.4-.1-.6v-44.1c0-.5.2-.9.5-1.3.2-.2.4-.3.6-.4.2-.1.5-.1.7-.1h19c5.1-.3 10.2 1.1 14.4 4.1 1.7 1.4 3 3.2 3.9 5.2.9 2 1.3 4.2 1.2 6.3.1 2.9-.7 5.7-2.2 8.1-1.6 2.3-3.7 4.1-6.3 5.3l9.3 16.6c.1.2.2.5.2.8 0 .4-.2.7-.4 1-.1.1-.3.3-.5.3-.2.1-.4.1-.6.1H344c-.6 0-1.2-.1-1.7-.5-.5-.3-.9-.8-1.1-1.4l-7.6-14.7H327v14.8c0 .2 0 .5-.1.7-.1.2-.2.4-.4.6-.2.2-.4.3-.6.4-.2.1-.5.1-.7.1h-9.4c-.2 0-.5-.1-.7-.1-.3-.4-.5-.6-.6-.7zm20.1-26.1c1.7.1 3.3-.4 4.5-1.5.5-.5.9-1.2 1.2-1.9s.4-1.4.3-2.2c0-.8-.1-1.5-.3-2.2-.3-.7-.7-1.4-1.2-1.9-.6-.5-1.3-1-2.1-1.2-.8-.3-1.6-.4-2.4-.3h-7.7v11.3l7.7-.1zm28.7 26.2c-.3-.3-.4-.6-.4-1v-.6L379 253c.2-.6.5-1.2 1.1-1.5.5-.4 1.2-.5 1.8-.5h10.8c.6-.1 1.3.1 1.8.5s.9.9 1.1 1.5l16.1 43.5v.6c0 .4-.2.7-.5 1-.3.3-.6.4-1 .4h-9c-.5 0-1-.1-1.4-.4-.4-.3-.7-.7-.9-1.1l-2.5-6.6h-18.1l-2.5 6.6c-.2.5-.5.9-.9 1.1-.4.3-.9.4-1.4.4h-9c-.2 0-.4 0-.6-.1-.3 0-.5-.1-.6-.2zm17.7-17.9h12.3l-6.1-17.3-6.2 17.3zm40 17.8c-.2-.2-.3-.3-.4-.6-.1-.2-.1-.4-.1-.7v-44.1c0-.2 0-.5.1-.7.1-.2.2-.4.4-.6.2-.2.4-.3.6-.4.2-.1.5-.1.7-.1h7.8c.5 0 1 .1 1.5.4.4.3.8.7 1 1.1l11.9 20.9 11.9-20.9c.2-.5.6-.9 1-1.1.4-.3 1-.4 1.5-.4h7.8c.2 0 .5 0 .7.1.2.1.4.2.6.4.2.2.3.4.4.6.1.2.1.5.1.7v44.1c0 .2 0 .5-.1.7-.1.2-.2.4-.4.6-.2.2-.4.3-.6.4-.2.1-.5.1-.7.1h-8.8c-.5 0-.9-.2-1.2-.5-.3-.3-.5-.7-.5-1.2v-24.8l-7.6 13.5c-.2.5-.6.8-1 1.1-.4.3-.9.4-1.4.5h-3.7c-.5 0-1-.2-1.4-.5-.4-.3-.8-.7-1-1.1l-7.4-13.4v24.7c0 .2 0 .5-.1.7-.1.2-.2.4-.4.6-.2.2-.4.3-.6.4-.2.1-.5.1-.7.1h-8.6c-.2 0-.5 0-.7-.1-.3-.2-.5-.3-.6-.5z" />
</svg>