<?xml version="1.0" encoding="UTF-8"?> <!-- Generator: Adobe Illustrator 24.3.0, SVG Export Plug-In . SVG Version: 6.00 Build 0) --> <svg xmlns="http://www.w3.org/2000/svg" xmlns:xlink="http://www.w3.org/1999/xlink" version="1.1" id="Layer_1" x="0px" y="0px" viewBox="0 0 256.1 108.2" style="enable-background:new 0 0 256.1 108.2;" xml:space="preserve"> <style type="text/css"> .st0{fill:#030D69;} .st1{fill:#40E0D1;} </style> <g> <g> <g> <path class="st0" d="M146,49.5c0.3,0,0.5,0.1,0.7,0.3s0.3,0.4,0.3,0.7c0,0.1,0,0.3-0.1,0.5l-10.5,23.1c-0.3,0.6-0.8,0.9-1.4,0.9 c-0.3,0-0.6-0.1-0.8-0.2c-0.2-0.2-0.4-0.4-0.6-0.7L123.2,51l-0.1-0.4c0-0.3,0.1-0.6,0.4-0.8c0.2-0.2,0.5-0.3,0.8-0.3 c0.4,0,0.7,0.2,0.9,0.6l9.9,22.4l10-22.2C145.2,49.8,145.5,49.5,146,49.5z"></path> <path class="st0" d="M170.4,70.4c0.2,0.2,0.3,0.4,0.3,0.6c0,0.3-0.1,0.7-0.4,1c-0.3,0.3-0.7,0.7-1.4,1.1c-2.5,1.5-5,2.2-7.7,2.2 c-3.7,0-6.7-1.2-8.8-3.5s-3.2-5.5-3.2-9.5c0-2.6,0.5-4.8,1.4-6.8c1-2,2.3-3.5,4.1-4.6c1.7-1.1,3.8-1.6,6-1.6c3.2,0,5.7,1,7.5,3.1 s2.7,4.9,2.7,8.5c0,0.6-0.1,1.1-0.4,1.3s-0.7,0.4-1.3,0.4h-17.7c0,3.4,0.9,6,2.5,7.8c1.7,1.8,4,2.7,7,2.7c1.7,0,3-0.2,4.1-0.7 c1.1-0.4,2.1-1,3.2-1.7c0.7-0.5,1.2-0.7,1.4-0.7C170,70.1,170.2,70.2,170.4,70.4z M154.4,53.9c-1.6,1.6-2.5,3.9-2.8,6.8h17.3 c-0.1-3-0.8-5.3-2.2-6.9c-1.4-1.6-3.4-2.4-5.9-2.4C158.1,51.5,156,52.3,154.4,53.9z"></path> <path class="st0" d="M188.2,49.5c0.4,0,0.7,0.1,0.8,0.2c0.2,0.2,0.2,0.4,0.2,0.7c0,0.6-0.4,0.9-1.1,1l-1.5,0.2 c-2.5,0.2-4.4,1.2-5.7,2.8S179,57.9,179,60v14.1c0,0.4-0.1,0.7-0.3,0.9s-0.5,0.3-0.8,0.3s-0.6-0.1-0.8-0.3 c-0.2-0.2-0.3-0.5-0.3-0.9V50.7c0-0.8,0.4-1.2,1.1-1.2c0.3,0,0.6,0.1,0.8,0.3s0.3,0.5,0.3,0.9v3.7c1.5-3,4.2-4.6,8-4.8h0.7 C187.8,49.5,188.2,49.5,188.2,49.5z"></path> <path class="st0" d="M210.2,51c1.7,1.1,3,2.6,3.9,4.5s1.4,4.2,1.4,6.8c0,2.6-0.5,4.9-1.4,6.9s-2.2,3.5-3.9,4.6s-3.6,1.6-5.8,1.6 c-2.1,0-3.9-0.5-5.4-1.4s-2.6-2.3-3.4-4v4c0,0.8-0.4,1.2-1.1,1.2c-0.3,0-0.6-0.1-0.8-0.3c-0.2-0.2-0.3-0.5-0.3-0.9V39.6 c0-0.8,0.4-1.2,1.1-1.2c0.3,0,0.6,0.1,0.8,0.3s0.3,0.5,0.3,0.9v15.2c0.8-1.7,1.9-3,3.4-4c1.5-0.9,3.3-1.4,5.4-1.4 C206.6,49.4,208.5,50,210.2,51z M210.8,70.4c1.5-1.9,2.3-4.6,2.3-8.1c0-3.4-0.8-6-2.3-7.9s-3.7-2.8-6.5-2.8s-4.9,0.9-6.4,2.8 c-1.5,1.9-2.3,4.6-2.3,8c0,3.5,0.8,6.2,2.3,8c1.5,1.9,3.7,2.8,6.5,2.8C207.1,73.3,209.3,72.3,210.8,70.4z"></path> <path class="st0" d="M221.3,42.8c-0.4-0.3-0.6-0.8-0.6-1.3c0-0.6,0.2-1,0.5-1.4c0.4-0.3,0.8-0.5,1.4-0.5c0.5,0,1,0.2,1.4,0.5 s0.5,0.8,0.5,1.4c0,0.5-0.2,1-0.6,1.3c-0.4,0.3-0.8,0.5-1.3,0.5S221.6,43.2,221.3,42.8z M221.8,75c-0.2-0.2-0.3-0.5-0.3-0.9V50.7 c0-0.3,0.1-0.6,0.3-0.8s0.5-0.3,0.8-0.3s0.6,0.1,0.8,0.3s0.3,0.5,0.3,0.8v23.4c0,0.4-0.1,0.7-0.3,0.9c-0.2,0.2-0.5,0.3-0.8,0.3 S222,75.2,221.8,75z"></path> <path class="st0" d="M243.5,74.3c0,0.8-0.5,1.1-1.5,1l-1.3-0.1c-2.6-0.2-4.5-1-5.7-2.3s-1.8-3.5-1.8-6.5V51.9h-4.3 c-0.2,0-0.4-0.1-0.6-0.3c-0.2-0.2-0.3-0.4-0.3-0.6c0-0.3,0.1-0.5,0.3-0.7s0.4-0.3,0.6-0.3h4.3v-6.9c0-0.4,0.1-0.7,0.3-0.9 s0.5-0.3,0.8-0.3s0.6,0.1,0.8,0.3s0.3,0.5,0.3,0.9V50h6.9c0.2,0,0.4,0.1,0.6,0.3c0.2,0.2,0.3,0.4,0.3,0.7c0,0.2-0.1,0.4-0.2,0.6 c-0.2,0.2-0.4,0.3-0.6,0.3h-6.9v14.5c0,2.3,0.5,4,1.4,5s2.3,1.6,4.2,1.7l1.4,0.1C243.1,73.3,243.5,73.7,243.5,74.3z"></path> </g> </g> <g> <polygon class="st0" points="12.5,5 73.5,102 99.2,61 64.3,5 "></polygon> <polygon class="st1" points="82,5 108.3,47.4 134.4,5 "></polygon> </g> </g> </svg> 