<svg width="1474" height="725" viewBox="0 0 1474 725" fill="none" xmlns="http://www.w3.org/2000/svg">
  <mask id="a" mask-type="alpha" maskUnits="userSpaceOnUse" x="0" y="0" width="1474" height="725">
    <path fill="#C4C4C4" d="M0 0h1474v725H0z" />
  </mask>
  <g mask="url(#a)">
    <path
      d="M1194 188c125.2-16 268.5-151.333 324.5-217l25.5 18 23.5 513.5c-42.67 15.833-184.2 71.8-409 169C877.5 793 935 440 880.5 362s-198.5-13.5-373 12.5-197.5-33-361-163.5C15.7 106.6-36.333 162.833-46 204l-50-75c29.5-34.833 123.1-90.6 261.5-35 173 69.5 293 57 516.5-42.5S908 9 949.5 67c56.68 79.211 88 141 244.5 121Z"
      fill="url(#b)" />
    <path
      d="M0 149.792c109.269-.223 212.941 71.167 320.898 91.398 115.264 21.612 224.223-51.632 333.89-107.21 82.832-41.976 186.989-105.875 264.9-7.134 28.925 36.651 52.436 85.762 80.512 124.431 33.21 45.743 69.51 65.901 110.83 61.006C1244.07 296.486 1339.04 57.266 1474 52"
      stroke="#272FFB" stroke-width=".262" stroke-miterlimit="10" />
  </g>
  <defs>
    <linearGradient id="b" x1="215.5" y1="184" x2="1505" y2="173" gradientUnits="userSpaceOnUse">
      <stop stop-color="#CCF3FF" />
      <stop offset="1" stop-color="#F8F8F8" />
    </linearGradient>
  </defs>
</svg>