<svg width="25" height="25" viewBox="0 0 25 25" fill="none" xmlns="http://www.w3.org/2000/svg">
<g clip-path="url(#clip0)">
<path d="M26.19 0H-0.595703V25H26.19V0Z" fill="#3F9C35"/>
<path d="M26.19 0H-0.595703V16.6667H26.19V0Z" fill="#ED2939"/>
<path d="M26.19 0H-0.595703V8.33333H26.19V0Z" fill="#00B9E4"/>
<path d="M11.9044 16.0713C13.8769 16.0713 15.4759 14.4723 15.4759 12.4999C15.4759 10.5274 13.8769 8.92847 11.9044 8.92847C9.93199 8.92847 8.33301 10.5274 8.33301 12.4999C8.33301 14.4723 9.93199 16.0713 11.9044 16.0713Z" fill="white"/>
<path d="M12.7972 15.4763C14.6053 15.4763 16.0711 14.1438 16.0711 12.5001C16.0711 10.8564 14.6053 9.52393 12.7972 9.52393C10.9892 9.52393 9.52344 10.8564 9.52344 12.5001C9.52344 14.1438 10.9892 15.4763 12.7972 15.4763Z" fill="#ED2939"/>
<path d="M16.3695 10.7144L16.7682 11.8352L17.8424 11.3248L17.332 12.3989L18.4528 12.7977L17.332 13.1964L17.8424 14.2714L16.7682 13.7602L16.3695 14.881L15.9707 13.7602L14.8965 14.2706L15.407 13.1964L14.2861 12.7977L15.407 12.3989L14.8965 11.3239L15.9707 11.8352L16.3695 10.7144Z" fill="white"/>
<path d="M30.3021 24.8628V0.137207H2.19303C1.59337 0.137207 1.06117 0.222796 1.06117 0.222796L1.05368 3.55885L-4.06218 3.55124C-4.06218 3.55124 -4.14089 3.66346 -4.30017 3.94115C-4.95846 5.09744 -5.3043 6.40964 -5.30273 7.74509V24.8628H30.3021Z" fill="#00247D"/>
<path d="M30.3021 0.137207H25.934L17.1846 6.35475V0.137207H7.81485V5.02337L1.06117 0.222796C-0.0653486 0.393591 -1.13769 0.826471 -2.07206 1.48761L6.73921 7.74509H3.48605L-3.49063 2.78285C-3.69638 3.02694 -3.88725 3.28355 -4.06219 3.55124L1.8426 7.74509H-5.30273V17.2549H1.97752L-5.30273 22.5158V24.8628H0.941235L7.81485 19.9786V24.8628H17.1846V18.6453L25.9321 24.8628H30.3021V21.0037L25.027 17.2549H30.3021V7.74509H25.0289L30.3021 3.9963V0.137207Z" fill="#EEEEEE"/>
<path d="M15.3106 0.137207H9.68879V9.64706H-5.30273V15.353H9.68879V24.8628H15.3106V15.353H30.3021V9.64706H15.3106V0.137207Z" fill="#CF1B2B"/>
<path d="M30.3024 0.137207H27.5336L17.0367 7.51495V7.74509H20.0139L30.3024 0.513797V0.137207ZM-2.43733 1.48761C-2.96789 1.85709 -3.44989 2.29228 -3.87192 2.78285L3.18353 7.74509H6.47152L-2.43733 1.48761ZM6.49426 17.2549L-4.31348 24.8628H-1.04064L7.5612 18.8184V17.2549H6.49426ZM30.3024 24.4862V22.1658L23.3151 17.2549H20.012L30.3024 24.4862Z" fill="#CF1B2B"/>
</g>
<defs>
<clipPath id="clip0">
<rect width="25" height="25" rx="12.5" fill="white"/>
</clipPath>
</defs>
</svg>
