<svg width="2954" height="1000" viewBox="0 0 2954 1000" fill="none" xmlns="http://www.w3.org/2000/svg">
<path d="M1743 328C1868.2 312 2011.5 176.667 2067.5 111C2109.38 84.5928 2152.7 64.3656 2196.64 49.886C2545.05 -64.9223 2932.47 181.602 2948.44 573.827L2952.59 675.632C2962.97 930.489 2804.68 1055.14 2562.18 976.061C2246.17 873.01 1841.01 753.774 1707.5 811.5C1426.5 933 1484 580 1429.5 502C1375 424 1231 488.5 1056.5 514.5C882 540.5 859 481.5 695.5 351C628.581 297.588 537.651 330.849 463.5 381.59C442.964 395.643 423.715 411.036 406.619 426.301C365.281 463.211 283.056 479.331 237.895 447.21L0 278C4.76652 272.372 44.1535 293.761 99.695 316.502C154.426 335.947 220.767 356.564 269 362.012C321.634 366.321 374.328 358.672 419.121 328C513.389 263.45 621.5 191.5 714.5 234C884.071 311.492 1007.5 291 1231 191.5C1454.5 92 1457 149 1498.5 207C1555.18 286.211 1586.5 348 1743 328Z" fill="black"/>
</svg>
