<svg width="54" height="65" viewBox="0 0 54 65" fill="none" xmlns="http://www.w3.org/2000/svg">
<path fill-rule="evenodd" clip-rule="evenodd" d="M7.9086 7.88582C12.972 2.83662 19.8395 0 27.0003 0C34.1611 0 41.0285 2.83662 46.092 7.88582C51.1554 12.935 54 19.7832 54 26.9239C54 34.0645 51.1554 40.9127 46.092 45.9619L27.0003 65L7.9086 45.9619C5.40129 43.4619 3.41236 40.4939 2.05539 37.2273C0.698424 33.9607 0 30.4596 0 26.9239C0 23.3881 0.698424 19.887 2.05539 16.6205C3.41236 13.3539 5.40129 10.3858 7.9086 7.88582ZM27.0003 34.616C29.0461 34.616 31.0082 33.8056 32.4548 32.363C33.9014 30.9205 34.7141 28.964 34.7141 26.9239C34.7141 24.8838 33.9014 22.9273 32.4548 21.4847C31.0082 20.0422 29.0461 19.2317 27.0003 19.2317C24.9545 19.2317 22.9924 20.0422 21.5458 21.4847C20.0992 22.9273 19.2865 24.8838 19.2865 26.9239C19.2865 28.964 20.0992 30.9205 21.5458 32.363C22.9924 33.8056 24.9545 34.616 27.0003 34.616Z" fill="#272FFB"/>
</svg>
