<svg height="264.150906" preserveAspectRatio="xMidYMid meet" viewBox="0 0 8560 5973" width="378.571483" xmlns="http://www.w3.org/2000/svg"><g transform="matrix(.1 0 0 -.1 0 5973)"><path d="m42355 39079c-1683-119-3137-1254-3664-2862-95-291-157-588-187-907-22-230-14-712 15-925 38-282 88-504 168-750 463-1430 1665-2503 3134-2799 805-162 1602-91 2374 211 158 62 503 235 637 320 682 431 1196 989 1538 1671 414 827 543 1722 380 2642-140 786-535 1551-1105 2139-861 887-2060 1346-3290 1260zm605-2005c792-114 1470-682 1726-1448 80-241 114-450 114-706 0-583-221-1127-625-1536-332-336-748-547-1220-619-150-24-441-24-598-1-532 77-1004 342-1355 761-272 324-449 753-491 1189-61 628 159 1264 594 1715 319 331 691 537 1127 626 229 46 492 53 728 19z"/><path d="m29080 39039c-1672-97-3117-1199-3658-2789-232-681-281-1420-141-2125 129-653 408-1251 825-1775 134-168 469-505 629-631 684-543 1454-845 2315-909 225-16 671-14 825 5 643 78 1253 333 1830 766 167 125 258 200 430 360 129 118 219 211 531 553 126 138 297 297 469 435 761 612 1707 972 2820 1072 159 15 680 18 859 6l118-8-33 42c-50 64-1174 1188-1414 1415-1528 1445-2764 2390-3889 2974-899 466-1688 657-2516 609zm462-1965c123-17 292-58 408-99 110-39 342-155 445-222 544-356 902-936 976-1582 15-139 7-496-16-616-87-472-284-854-610-1181-539-541-1316-752-2058-559-268 69-582 229-797 405-359 293-621 702-735 1145-169 657-36 1336 367 1873 93 123 245 281 362 376 271 219 595 373 928 441 233 47 485 53 730 19z"/><path d="m55630 39043c-797-42-1579-380-2295-992-149-127-406-383-590-586-182-202-337-354-500-490-772-646-1724-1023-2855-1131-193-19-664-24-889-11l-134 8 134-142c400-424 1163-1178 1659-1640 1418-1321 2752-2293 3820-2785 787-361 1453-505 2191-473 1188 52 2284 610 3028 1544 487 610 779 1314 878 2115 25 205 25 705 0 910-86 696-307 1296-678 1845-685 1013-1761 1664-2974 1800-77 9-257 20-400 25-254 9-281 9-395 3zm749-1968c625-91 1184-464 1524-1015 165-268 274-601 308-935 14-143 7-396-16-540-59-380-222-748-462-1045-80-98-278-291-373-361-301-224-636-364-997-415-142-20-417-23-553-5-933 122-1678 825-1854 1751-41 216-46 554-11 760 160 957 916 1693 1855 1809 47 6 105 13 130 15 83 7 341-4 449-19z"/><path d="m66435 27665c-162-35-311-119-420-237-84-91-136-178-174-293-76-229-62-448 43-660 102-206 285-355 514-417 110-30 324-30 437 0 276 74 492 273 579 532 80 240 42 525-97 730-116 171-314 302-519 344-93 19-278 20-363 1z"/><path d="m9345 27434c-1088-71-1947-541-2348-1284-96-177-178-435-208-650-19-134-16-446 5-595 103-729 497-1227 1261-1596 316-152 579-246 1316-468 682-205 890-280 1148-411 182-92 306-177 419-285 199-190 294-397 309-675 28-510-293-920-862-1103-192-61-379-92-633-103-955-42-1742 548-1977 1481-18 72-36 156-40 188-4 31-11 59-15 62-7 4-1239-371-1249-381-7-7 52-271 86-384 142-471 368-857 702-1203 521-539 1219-867 2016-948 148-15 545-15 720 0 749 64 1385 290 1840 656 96 77 264 244 342 340 340 420 495 935 463 1534-16 288-54 492-137 735-186 546-574 960-1183 1265-384 192-671 287-1650 550-498 133-740 215-951 321-255 127-404 260-490 436-50 104-69 191-69 329 0 640 570 1019 1489 992 124-3 228-13 311-27 686-120 1169-561 1336-1219 13-52 26-96 28-99 5-4 1207 486 1219 498 5 4-2 49-14 101-74 319-247 663-462 918-465 554-1184 908-2042 1006-135 15-556 27-680 19z"/><path d="m39167 27433c-4-3-7-1866-7-4140v-4133h640 640v1318c0 1305 5 1527 35 1781 150 1229 832 1869 1830 1715 188-29 370-101 522-206 83-58 211-188 266-270 56-85 123-232 151-330 58-202 56-131 56-2152v-1856h640 640l-3 2068c-2 1926-4 2074-20 2172-107 632-386 1079-870 1394-632 412-1634 470-2323 135-376-183-650-443-911-865-9-15-12 361-12 1679l-1 1697h-633c-349 0-637-3-640-7z"/><path d="m62320 25930v-880h-515-515v-545-545h515 514l4-1607c3-1586 3-1610 24-1738 85-520 289-895 630-1161 413-324 1045-454 1733-359 201 28 490 98 490 119 0 31-81 1121-84 1123-1 2-31-8-65-22-173-71-387-107-626-108-143 0-183 4-250 22-318 85-507 308-560 658-13 83-15 328-15 1586v1487h760 760v545 545h-760-760v880 880h-640-640z"/><path d="m16400 25140c-421-32-848-175-1166-388-182-123-283-217-443-412l-20-25-1 368v367h-640-640l2-4007 3-4008 638-3 637-2v1401 1401l47-53c287-329 724-566 1220-663 193-38 309-49 518-49 1076 2 1938 485 2424 1358 289 519 431 1206 393 1893-23 409-77 699-192 1037-252 737-758 1297-1423 1574-404 168-903 246-1357 211zm315-1133c466-88 812-312 1057-682 201-305 308-675 324-1125 24-644-161-1187-530-1555-300-300-645-444-1101-462-385-15-734 80-1027 278-132 89-314 275-407 413-211 317-320 683-337 1136-20 506 95 965 329 1320 245 371 635 616 1077 679 41 6 86 13 100 15 58 10 439-3 515-17z"/><path d="m22645 25143c-729-45-1326-294-1794-748-483-468-772-1072-876-1830-23-162-31-583-15-757 69-767 371-1443 864-1933 454-451 1005-709 1691-790 185-22 565-22 768-1 425 46 779 145 1100 308 468 237 811 580 1039 1036 62 126 169 414 157 426-9 10-1192 305-1201 300-4-3-8-11-8-18 0-29-55-175-96-259-60-120-113-195-203-290-220-232-531-373-920-418-155-17-468-7-604 20-363 73-682 257-906 524-231 276-376 626-435 1050l-5 37h2249 2248l6 28c15 70 25 516 16 667-76 1199-773 2134-1855 2491-378 124-824 182-1220 157zm355-1013c400-35 719-176 958-424 147-154 258-340 327-551 36-108 75-293 75-351v-34h-1551-1551l7 33c19 86 71 250 111 350 276 687 867 1043 1624 977z"/><path d="m28995 25143c-437-27-788-115-1140-288-189-93-329-180-484-305-855-682-1256-1953-1000-3165 130-615 419-1146 848-1557 313-300 696-518 1132-643 541-156 1209-160 1799-10 822 209 1424 720 1704 1447 44 113 80 228 74 233-5 5-1200 306-1202 303-2-2-11-32-21-68-88-324-325-606-644-765-104-52-285-110-426-137-106-20-150-23-375-23-238 1-263 3-381 28-328 70-576 203-804 432-267 267-426 594-505 1034-11 63-20 120-20 128 0 11 389 13 2249 13h2249l9 68c4 37 8 222 8 412-1 306-3 361-23 485-53 339-148 634-296 920-404 784-1137 1291-2061 1426-219 31-493 44-690 32zm355-1013c391-35 695-166 936-405 228-227 379-550 420-897l7-58h-1552c-1126 0-1551 3-1551 11 0 22 32 137 72 257 50 155 157 368 245 491 316 440 822 654 1423 601z"/><path d="m35405 25143c-128-7-346-35-485-63-277-56-496-130-740-251-738-367-1253-1042-1448-1899-112-492-120-1050-21-1545 167-841 611-1497 1289-1905 633-382 1502-510 2334-344 1000 199 1701 835 1936 1757 20 75 29 131 24 136-5 4-281 61-614 126s-610 120-617 122c-7 3-16-13-23-39-27-109-73-240-110-318-187-386-528-633-990-717-120-22-468-25-580-5-368 66-622 193-861 432-270 269-433 618-506 1080-23 146-26 624-5 765 127 849 582 1383 1299 1526 137 27 406 37 552 20 603-70 1056-460 1191-1025 11-43 20-80 22-82 6-5 1223 238 1232 247 13 12-38 229-90 381-82 243-215 484-371 678-143 177-386 388-586 509-499 301-1156 450-1832 414z"/><path d="m48630 25144c-345-33-613-116-857-266-251-153-485-402-647-686l-66-116v487 487h-640-640v-2945-2945h640 640v1573c0 987 4 1617 10 1692 47 549 219 983 500 1266 181 181 389 291 634 334 114 19 352 20 473 0 415-67 706-312 837-705 75-225 70-52 73-2217l3-1943h635 635v1583c0 1577 2 1681 36 1907 114 768 522 1272 1111 1375 111 19 351 19 470 0 505-82 838-438 908-972 13-98 15-382 15-2004v-1889h640 640v2048c0 1371-4 2085-11 2158-93 964-744 1628-1724 1760-179 24-508 24-665 0-494-75-899-274-1230-606-132-131-243-275-332-427l-61-104-42 103c-54 133-80 183-153 293-272 412-715 662-1307 740-119 15-439 27-525 19z"/><path d="m57897 25139c-1014-78-1832-672-2123-1543-48-145-98-357-86-367 9-8 1132-213 1137-207 2 2 14 52 25 112 88 456 376 793 795 930 353 115 809 93 1124-55 359-168 575-475 620-882 13-114 14-237 3-237-40 0-1288-136-1427-156-574-80-1086-227-1435-411-459-241-742-555-873-968-60-188-72-280-72-540 0-265 15-366 86-570 186-542 641-941 1251-1099 380-99 754-107 1138-25 317 68 665 235 913 437 116 95 280 274 357 388l70 105v-445-446h625 625l-3 1988c-2 1847-4 1994-20 2092-44 259-110 476-207 678-180 374-471 680-845 890-448 251-1085 376-1678 331zm1500-3416c-7-247-23-374-72-553-78-289-209-515-410-708-211-203-462-328-773-384-145-26-453-31-572-9-225 41-425 141-549 276-230 252-254 629-58 915 162 235 538 422 1032 511 94 17 1309 164 1389 168 18 1 19-7 13-216z"/><path d="m70856 25139c-438-32-862-149-1225-340-371-195-709-496-950-849-448-654-626-1575-476-2467 208-1236 1015-2096 2202-2347 528-111 1170-89 1685 60 168 48 294 96 453 174 257 125 439 254 635 450 191 191 317 368 436 615 96 199 214 570 188 594-5 4-279 61-609 125s-607 119-616 122c-13 4-20-10-34-68-122-506-491-872-993-983-621-138-1243 46-1613 478-305 358-459 832-459 1412 1 874 379 1540 1023 1799 343 138 811 154 1157 40 204-67 432-211 565-357 157-171 271-390 320-610 14-63 21-78 34-75 9 3 286 58 616 123 330 66 602 121 605 123 9 6-39 216-75 331-281 884-1030 1468-2080 1620-261 38-530 48-789 30z"/><path d="m76189 25139c-341-24-674-109-944-240-404-196-701-519-829-899-53-161-69-270-70-475 0-208 9-290 55-463 112-428 388-737 864-968 261-126 484-200 1080-358 480-127 673-190 840-273 323-162 470-394 434-687-42-335-344-599-768-670-122-21-361-21-498 0-544 80-950 434-1173 1022-34 89-47 112-59 107-143-54-1024-433-1028-442-8-20 66-207 136-347 343-678 964-1150 1731-1314 331-71 740-86 1081-38 343 48 680 162 936 317 210 127 430 328 560 512 120 171 215 389 264 609 30 133 37 455 15 625-20 149-63 320-111 441-159 395-490 705-976 911-237 100-474 170-1079 320-423 104-583 153-736 225-177 84-290 183-347 305-25 54-31 80-35 163-3 62 0 122 8 156 67 301 398 482 883 482 570 0 1068-340 1228-838 13-40 28-71 34-68 41 16 1041 439 1043 441 6 5-71 202-111 280-151 302-421 587-747 788-103 63-324 169-445 213-378 136-813 194-1236 163z"/><path d="m65980 22105v-2945h640 640v2945 2945h-640-640z"/></g></svg>