<svg width="160" height="33" viewBox="0 0 160 33" fill="none" xmlns="http://www.w3.org/2000/svg">
  <path
    d="M42.854 24.18a.506.506 0 0 1-.335-.134.506.506 0 0 1-.134-.335c0-.09.007-.157.022-.201l5.248-14.338a.812.812 0 0 1 .29-.447c.15-.119.343-.178.581-.178h3.306c.238 0 .431.06.58.178.15.12.246.268.29.447l5.226 14.338.045.2a.47.47 0 0 1-.156.336.455.455 0 0 1-.335.134h-2.747c-.358 0-.596-.157-.715-.47l-.87-2.277h-5.964l-.848 2.278c-.12.312-.365.469-.737.469h-2.747Zm9.402-5.963-2.077-5.896-2.077 5.896h4.154ZM63.026 24.403c-1.206 0-2.218-.171-3.037-.514-.804-.342-1.4-.752-1.787-1.228s-.58-.9-.58-1.273c0-.149.052-.268.156-.357a.568.568 0 0 1 .38-.157h2.546c.089 0 .17.038.245.112.179.12.313.216.402.29.328.239.61.417.849.536.253.105.558.157.915.157.432 0 .782-.082 1.05-.246.283-.179.424-.424.424-.737 0-.253-.074-.454-.223-.603-.134-.149-.402-.29-.804-.424-.402-.15-1.012-.305-1.831-.47-1.236-.252-2.189-.662-2.859-1.227-.655-.581-.982-1.355-.982-2.323 0-.61.193-1.191.58-1.742.387-.55.96-.998 1.72-1.34.774-.342 1.69-.514 2.747-.514s1.98.164 2.77.492c.788.327 1.384.73 1.786 1.206.417.461.625.886.625 1.273a.492.492 0 0 1-.156.357.423.423 0 0 1-.335.156h-2.323a.566.566 0 0 1-.335-.111 3.4 3.4 0 0 1-.513-.335 3.945 3.945 0 0 0-.715-.447c-.224-.104-.499-.156-.827-.156-.387 0-.7.089-.938.268a.846.846 0 0 0-.334.692c0 .223.06.41.178.558.134.15.402.298.804.447.417.134 1.027.275 1.831.424 1.445.253 2.494.7 3.15 1.34.67.64 1.004 1.392 1.004 2.256 0 1.101-.491 1.987-1.474 2.657-.982.655-2.352.983-4.109.983ZM74.13 24.403c-1.206 0-2.219-.171-3.038-.514-.804-.342-1.4-.752-1.786-1.228-.388-.476-.581-.9-.581-1.273 0-.149.052-.268.156-.357a.568.568 0 0 1 .38-.157h2.546c.09 0 .171.038.246.112.178.12.312.216.401.29.328.239.611.417.85.536.252.105.558.157.915.157.432 0 .782-.082 1.05-.246.282-.179.424-.424.424-.737 0-.253-.075-.454-.224-.603-.133-.149-.401-.29-.803-.424-.403-.15-1.013-.305-1.832-.47-1.236-.252-2.188-.662-2.858-1.227-.656-.581-.983-1.355-.983-2.323 0-.61.194-1.191.58-1.742.388-.55.96-.998 1.72-1.34.774-.342 1.69-.514 2.747-.514s1.98.164 2.77.492c.788.327 1.384.73 1.786 1.206.417.461.625.886.625 1.273a.492.492 0 0 1-.156.357.423.423 0 0 1-.335.156h-2.323a.566.566 0 0 1-.335-.111 3.404 3.404 0 0 1-.513-.335 3.941 3.941 0 0 0-.715-.447c-.223-.104-.499-.156-.826-.156-.387 0-.7.089-.938.268a.846.846 0 0 0-.335.692c0 .223.06.41.178.558.135.15.403.298.805.447.416.134 1.027.275 1.83.424 1.445.253 2.495.7 3.15 1.34.67.64 1.005 1.392 1.005 2.256 0 1.101-.492 1.987-1.474 2.657-.983.655-2.353.983-4.11.983ZM85.814 24.403c-1.787 0-3.194-.484-4.221-1.452-1.028-.967-1.564-2.374-1.608-4.22v-.782c.06-1.757.603-3.127 1.63-4.11 1.042-.997 2.434-1.496 4.176-1.496 1.266 0 2.33.26 3.194.782a4.778 4.778 0 0 1 1.965 2.1c.447.893.67 1.92.67 3.081v.536a.595.595 0 0 1-.156.402.544.544 0 0 1-.402.157h-7.147v.156c.03.7.201 1.265.514 1.697.313.432.767.648 1.362.648.372 0 .678-.075.916-.224.238-.163.454-.357.647-.58.134-.164.239-.26.313-.29.09-.045.223-.068.402-.068h2.77c.133 0 .245.045.334.134a.362.362 0 0 1 .157.313c0 .387-.224.834-.67 1.34-.432.506-1.065.945-1.899 1.318-.833.372-1.816.558-2.947.558Zm1.875-7.213v-.045c0-.73-.17-1.303-.513-1.72-.328-.432-.79-.647-1.385-.647-.58 0-1.042.215-1.385.647-.327.417-.49.99-.49 1.72v.045h3.773ZM93.031 24.18a.544.544 0 0 1-.402-.157.544.544 0 0 1-.156-.402V13.125c0-.164.052-.298.156-.402a.544.544 0 0 1 .402-.156h2.434c.164 0 .298.052.403.156a.544.544 0 0 1 .156.402v.76c.342-.447.796-.812 1.362-1.095a4.195 4.195 0 0 1 1.943-.447c1.638 0 2.769.64 3.395 1.921.357-.566.856-1.027 1.496-1.385a4.15 4.15 0 0 1 2.055-.536c1.22 0 2.21.417 2.97 1.251.774.819 1.161 2.047 1.161 3.685v6.342a.595.595 0 0 1-.156.402.543.543 0 0 1-.402.157h-2.591a.621.621 0 0 1-.424-.157.545.545 0 0 1-.156-.402v-6.186c0-.744-.157-1.28-.469-1.608-.298-.327-.708-.491-1.229-.491-.476 0-.871.171-1.183.514-.313.327-.469.856-.469 1.585v6.186a.592.592 0 0 1-.157.402.543.543 0 0 1-.402.157h-2.59a.544.544 0 0 1-.402-.157.544.544 0 0 1-.157-.402v-6.186c0-.73-.163-1.258-.49-1.585-.314-.343-.716-.514-1.207-.514-.476 0-.878.171-1.206.514-.313.327-.469.848-.469 1.563v6.208a.594.594 0 0 1-.156.402.544.544 0 0 1-.402.157H93.03ZM118.791 24.403c-1.489 0-2.643-.499-3.461-1.496v.714a.596.596 0 0 1-.157.402.543.543 0 0 1-.402.157h-2.523a.594.594 0 0 1-.402-.157.592.592 0 0 1-.157-.402V8.881c0-.163.052-.297.157-.401a.594.594 0 0 1 .402-.157h2.724c.164 0 .298.053.402.157a.545.545 0 0 1 .157.402v4.779c.833-.878 1.92-1.318 3.26-1.318 1.444 0 2.583.47 3.417 1.407.834.938 1.28 2.211 1.34 3.82.015.193.022.46.022.803 0 .328-.007.588-.022.782-.074 1.667-.521 2.963-1.34 3.886-.819.908-1.958 1.362-3.417 1.362Zm-1.206-2.993c.7 0 1.199-.208 1.496-.625.313-.417.492-.99.536-1.72.03-.297.045-.528.045-.692 0-.164-.015-.394-.045-.692-.044-.73-.223-1.303-.536-1.72-.297-.417-.796-.625-1.496-.625-.655 0-1.154.2-1.496.603-.343.402-.529.908-.558 1.518l-.023.827.023.849c.044.67.223 1.22.536 1.652.327.417.833.625 1.518.625ZM125.096 24.18a.594.594 0 0 1-.402-.157.592.592 0 0 1-.157-.402V8.881c0-.163.052-.297.157-.401a.594.594 0 0 1 .402-.157h2.635c.164 0 .298.053.402.157a.545.545 0 0 1 .156.402v14.74a.545.545 0 0 1-.156.401.543.543 0 0 1-.402.157h-2.635ZM131.853 28.423a.456.456 0 0 1-.469-.469c0-.104.022-.201.067-.29l1.742-4.199-4.288-10.139a.846.846 0 0 1-.067-.268.664.664 0 0 1 .179-.335.423.423 0 0 1 .335-.156h2.546c.312 0 .528.156.647.469l2.546 6.499 2.613-6.5c.149-.312.372-.468.67-.468h2.501c.134 0 .246.052.335.156a.4.4 0 0 1 .157.313c0 .06-.023.156-.067.29l-6.32 14.628c-.119.313-.343.469-.67.469h-2.457ZM140.23 24.18a.506.506 0 0 1-.335-.134.503.503 0 0 1-.134-.335c0-.09.007-.157.022-.201l5.248-14.338a.814.814 0 0 1 .291-.447c.148-.119.342-.178.58-.178h3.305c.239 0 .432.06.581.178.149.12.246.268.29.447l5.226 14.338.045.2a.47.47 0 0 1-.156.336.456.456 0 0 1-.335.134h-2.747c-.358 0-.596-.157-.715-.47l-.871-2.277h-5.963l-.848 2.278c-.12.312-.365.469-.737.469h-2.747Zm9.402-5.963-2.077-5.896-2.077 5.896h4.154ZM156.427 24.18a.594.594 0 0 1-.402-.157.596.596 0 0 1-.157-.402V9.105c0-.164.053-.298.157-.402a.594.594 0 0 1 .402-.156h2.992c.164 0 .298.052.402.156a.51.51 0 0 1 .179.402v14.516a.51.51 0 0 1-.179.402.543.543 0 0 1-.402.157h-2.992Z"
    fill="#000" />
  <g clip-path="url(#a)">
    <path
      d="m3.048 22.135-2.553 6c-.716 1.68-.85 3.596.943 4.263.428.161.863.236 1.298.236 1.383 0 2.7-.782 3.244-2.065l.514-1.208 3.936-9.245 3.918-9.21c.935-1.638 1.508-4.157 5.179-5.512-2.854-.366-8.606-1.12-8.663-1.12l-.458.7c-.08.126-.16.259-.22.397-.007.011-.007.017-.013.023l-7.119 16.73s-.006.005-.006.011Z"
      fill="url(#b)" />
    <path
      d="m28.567 22.135 2.553 6c.716 1.68.851 3.596-.943 4.263a3.663 3.663 0 0 1-1.297.236c-1.384 0-2.7-.782-3.245-2.065l-.514-1.208-3.936-9.245-3.918-9.211c-.935-1.637-2.513-5.021-6.728-6.115.532-1.249 2.357-1.462 3.784-1.462h3.899c.153.006.3.023.46.046.079.012.165.012.244.03.104.022.202.062.306.091.117.035.233.058.343.104.049.023.098.052.147.075.153.069.3.138.44.224.099.057.178.138.27.207.08.063.172.12.245.19.067.069.128.15.196.224.08.092.165.173.232.27.037.058.068.127.104.185.08.126.16.259.22.397.007.011.007.017.013.023l7.12 16.73s.005.005.005.01Z"
      fill="url(#c)" />
  </g>
  <defs>
    <radialGradient id="b" cx="0" cy="0" r="1" gradientUnits="userSpaceOnUse"
      gradientTransform="matrix(-10.5381 25.55215 -17.442 -7.19335 12.12 7.417)">
      <stop stop-color="#142167" />
      <stop offset="1" stop-color="#263DB5" />
    </radialGradient>
    <radialGradient id="c" cx="0" cy="0" r="1" gradientUnits="userSpaceOnUse"
      gradientTransform="matrix(-17.303 18.94257 -66.27725 -60.54066 29.568 9.767)">
      <stop stop-color="#4259D4" />
      <stop offset="1" stop-color="#6A81FC" />
    </radialGradient>
    <clipPath id="a">
      <path fill="#000" d="M0 .562h32.258V32.82H0z" />
    </clipPath>
  </defs>
</svg>