<svg xmlns="http://www.w3.org/2000/svg" viewBox="0 0 646.4 194.39">
  <path fill="#231f20"
    d="M156.04 30.32a5.67 5.67 0 0 0-5.66 5.66v89.37a5.66 5.66 0 0 0 11.32 0V35.98a5.67 5.67 0 0 0-5.66-5.66Zm42-30.32a5.67 5.67 0 0 0-5.66 5.66v32.6a5.66 5.66 0 0 0 11.32 0V5.66A5.67 5.67 0 0 0 198.04 0Zm-86.3 104.18a5.67 5.67 0 0 0-5.7 5.63v78.89a5.66 5.66 0 0 0 11.32 0v-78.89a5.67 5.67 0 0 0-5.62-5.63ZM177.04 0a5.67 5.67 0 0 0-5.66 5.66v74.29a5.66 5.66 0 0 0 11.32 0V5.66A5.67 5.67 0 0 0 177.04 0Zm-42 77.33a5.67 5.67 0 0 0-5.66 5.66v78.31a5.66 5.66 0 0 0 11.32 0V82.99a5.67 5.67 0 0 0-5.66-5.66ZM26.6 0a5.67 5.67 0 0 0-5.66 5.66v74.29a5.66 5.66 0 1 0 11.32 0V5.66A5.67 5.67 0 0 0 26.6 0ZM5.66 0A5.66 5.66 0 0 0 .04 5.66v32.6a5.66 5.66 0 1 0 11.32 0V5.66A5.67 5.67 0 0 0 5.66 0ZM68.4 77.33a5.67 5.67 0 0 0-5.66 5.66v78.31a5.66 5.66 0 0 0 11.32 0V82.99a5.67 5.67 0 0 0-5.66-5.66Zm21.37 26.85a5.67 5.67 0 0 0-5.66 5.66v78.89a5.66 5.66 0 1 0 11.32 0v-78.92a5.67 5.67 0 0 0-5.66-5.63Zm-42.1-73.86a5.67 5.67 0 0 0-5.63 5.66v89.37a5.66 5.66 0 0 0 11.32 0V35.98a5.67 5.67 0 0 0-5.69-5.66ZM258.13 77.69l10.37 33.32 10.4-33.55c.54-1.77.94-3 1.22-3.68a4.85 4.85 0 0 1 1.34-1.87 3.74 3.74 0 0 1 2.56-.83 4 4 0 0 1 2.2.65 4.61 4.61 0 0 1 1.6 1.71 4.52 4.52 0 0 1 .57 2.15 7.93 7.93 0 0 1-.18 1.61c-.13.58-.29 1.14-.47 1.7s-.38 1.12-.56 1.71l-11.09 32.46c-.4 1.25-.79 2.43-1.19 3.54a15.56 15.56 0 0 1-1.37 2.95 6.59 6.59 0 0 1-2.08 2.09 5.88 5.88 0 0 1-3.17.81 5.94 5.94 0 0 1-3.17-.8 6.29 6.29 0 0 1-2.1-2.1 15.89 15.89 0 0 1-1.38-3c-.4-1.11-.8-2.28-1.19-3.53l-10.9-32.15c-.19-.59-.38-1.17-.58-1.73a14.71 14.71 0 0 1-.5-1.83 8.12 8.12 0 0 1-.2-1.66 4.58 4.58 0 0 1 1.28-3.15 4.13 4.13 0 0 1 3.22-1.43 3.63 3.63 0 0 1 3.35 1.58 21.86 21.86 0 0 1 2.02 5.03ZM317.86 71.08a22.94 22.94 0 0 1 12.23 3.14 19.77 19.77 0 0 1 7.73 8.91 32.56 32.56 0 0 1 2.62 13.57 36.09 36.09 0 0 1-1.4 10.48 23.11 23.11 0 0 1-4.32 8.16 18.76 18.76 0 0 1-7 5.29 25.8 25.8 0 0 1-19.21 0 19 19 0 0 1-7.09-5.3 23.25 23.25 0 0 1-4.3-8.24 35.81 35.81 0 0 1-1.45-10.4 34.66 34.66 0 0 1 1.51-10.51 23.1 23.1 0 0 1 4.39-8.13 19 19 0 0 1 7-5.14 23.54 23.54 0 0 1 9.29-1.83Zm13.18 25.56a25.14 25.14 0 0 0-1.62-9.46 13 13 0 0 0-4.64-6.05 12.07 12.07 0 0 0-6.92-2 11.66 11.66 0 0 0-5.14 1.14 11.46 11.46 0 0 0-4.06 3.3 16.45 16.45 0 0 0-2.69 5.54 27.31 27.31 0 0 0-1 7.58 28 28 0 0 0 1 7.66 16.33 16.33 0 0 0 2.78 5.67 11.72 11.72 0 0 0 4.13 3.37 11.55 11.55 0 0 0 5.1 1.12 11.79 11.79 0 0 0 6.55-1.93 13.1 13.1 0 0 0 4.75-6 24.89 24.89 0 0 0 1.76-9.94ZM351.95 116.33V77.18a7 7 0 0 1 1.28-4.57 4.12 4.12 0 0 1 3.31-1.53 4.29 4.29 0 0 1 3.39 1.51 6.94 6.94 0 0 1 1.29 4.59v39.15a7 7 0 0 1-1.29 4.61 4.27 4.27 0 0 1-3.39 1.52 4.13 4.13 0 0 1-3.3-1.54 7 7 0 0 1-1.29-4.59ZM413.8 105.92a14.17 14.17 0 0 1-1.07 5.14 18.7 18.7 0 0 1-3.39 5.42 17.35 17.35 0 0 1-5.91 4.32 19.69 19.69 0 0 1-8.37 1.66 26.94 26.94 0 0 1-6.59-.75 17.44 17.44 0 0 1-5.38-2.32 18.64 18.64 0 0 1-4.46-4.15 25.66 25.66 0 0 1-3.09-5.23 29.55 29.55 0 0 1-1.92-6.19 36.23 36.23 0 0 1-.64-7 33.39 33.39 0 0 1 1.61-10.74 23.23 23.23 0 0 1 4.61-8.12 20 20 0 0 1 7-5.13 21.14 21.14 0 0 1 8.59-1.77 20.17 20.17 0 0 1 9.91 2.41 18.34 18.34 0 0 1 6.65 5.95 12.36 12.36 0 0 1 2.31 6.69 4.57 4.57 0 0 1-1.13 3.05 3.43 3.43 0 0 1-2.71 1.32 3.55 3.55 0 0 1-2.67-.91 12.58 12.58 0 0 1-2-3.15 14.84 14.84 0 0 0-4.26-5.53 9.81 9.81 0 0 0-6-1.83 10.67 10.67 0 0 0-9.11 4.71q-3.39 4.71-3.39 13.39a26.73 26.73 0 0 0 1.5 9.64 12 12 0 0 0 4.25 5.74 11 11 0 0 0 6.43 1.9 10.67 10.67 0 0 0 6.77-2.15 13 13 0 0 0 4.17-6.32 11 11 0 0 1 1.46-3.2 3.21 3.21 0 0 1 2.82-1.24 3.79 3.79 0 0 1 2.84 1.25 4.38 4.38 0 0 1 1.17 3.14ZM455.51 79.69h-20.89v12.2h19.24a4.35 4.35 0 0 1 3.17 1 3.62 3.62 0 0 1 1.05 2.72 3.87 3.87 0 0 1-1 2.77 4.26 4.26 0 0 1-3.19 1.06h-19.27v14.17h21.61a4.48 4.48 0 0 1 3.3 1.11 3.94 3.94 0 0 1 1.11 2.93 3.85 3.85 0 0 1-1.11 2.86 4.48 4.48 0 0 1-3.3 1.1h-25.19c-2 0-3.48-.48-4.36-1.45s-1.33-2.55-1.33-4.72V78.1a8.88 8.88 0 0 1 .6-3.54 3.82 3.82 0 0 1 1.85-2 7.31 7.31 0 0 1 3.24-.63h24.48a4.53 4.53 0 0 1 3.3 1.07 3.74 3.74 0 0 1 1.07 2.81 3.79 3.79 0 0 1-1.08 2.83 4.49 4.49 0 0 1-3.3 1.05ZM480.81 77.18v36.16h19.49a5 5 0 0 1 3.58 1.19 3.94 3.94 0 0 1 1.25 3 3.86 3.86 0 0 1-1.23 3 5.16 5.16 0 0 1-3.6 1.13h-23.21c-2.1 0-3.6-.48-4.52-1.45s-1.37-2.55-1.37-4.72V77.18a6.83 6.83 0 0 1 1.31-4.57 4.31 4.31 0 0 1 3.45-1.53 4.51 4.51 0 0 1 3.51 1.51 6.78 6.78 0 0 1 1.34 4.59ZM532.34 71.08a24.42 24.42 0 0 1 12.7 3.14 20 20 0 0 1 8 8.91 31.63 31.63 0 0 1 2.72 13.57 34.73 34.73 0 0 1-1.49 10.48 22.92 22.92 0 0 1-4.47 8.16 19.54 19.54 0 0 1-7.32 5.29 27.64 27.64 0 0 1-19.91 0 19.69 19.69 0 0 1-7.35-5.3 23 23 0 0 1-4.45-8.24 34.49 34.49 0 0 1-1.51-10.4 33.73 33.73 0 0 1 1.57-10.51 22.9 22.9 0 0 1 4.55-8.13 19.73 19.73 0 0 1 7.26-5.14 25.13 25.13 0 0 1 9.7-1.83Zm13.7 25.56a24.34 24.34 0 0 0-1.68-9.46 13.08 13.08 0 0 0-4.81-6.05 12.81 12.81 0 0 0-7.17-2 12.47 12.47 0 0 0-5.34 1.09 11.78 11.78 0 0 0-4.21 3.3 16.17 16.17 0 0 0-2.78 5.54 26.18 26.18 0 0 0-1 7.58 26.85 26.85 0 0 0 1 7.66 15.93 15.93 0 0 0 2.88 5.67 12.07 12.07 0 0 0 4.27 3.37 13 13 0 0 0 12.08-.81 13.19 13.19 0 0 0 4.92-6 24 24 0 0 0 1.84-9.89ZM595.65 79.69h-18.94V92.4h15.83a4.62 4.62 0 0 1 3.29 1 3.65 3.65 0 0 1 1.08 2.77 3.53 3.53 0 0 1-1.1 2.74 4.64 4.64 0 0 1-3.27 1h-15.83v16.37a6.81 6.81 0 0 1-1.34 4.62 4.72 4.72 0 0 1-6.93 0 6.8 6.8 0 0 1-1.35-4.61V78.1a8.68 8.68 0 0 1 .62-3.54 3.91 3.91 0 0 1 1.92-2 7.81 7.81 0 0 1 3.36-.63h22.66a4.82 4.82 0 0 1 3.39 1.07 3.69 3.69 0 0 1 1.14 2.81 3.74 3.74 0 0 1-1.14 2.81 4.77 4.77 0 0 1-3.39 1.07ZM641.48 80.23h-10.44v36.1a6.87 6.87 0 0 1-1.33 4.62 4.35 4.35 0 0 1-3.43 1.51 4.42 4.42 0 0 1-3.48-1.52 6.8 6.8 0 0 1-1.35-4.61v-36.1h-10.54a5.14 5.14 0 0 1-3.66-1.13 4 4 0 0 1-1.19-3 3.89 3.89 0 0 1 1.24-3.05 5.22 5.22 0 0 1 3.61-1.12h30.57a5.22 5.22 0 0 1 3.7 1.15 4 4 0 0 1 1.22 3 3.9 3.9 0 0 1-1.23 3 5.26 5.26 0 0 1-3.69 1.15Z" />
</svg>