<svg xmlns="http://www.w3.org/2000/svg" viewBox="0 0 398.14 284.53">
  <g>
    <path fill="#231f20"
      d="M253.24 30.32a5.67 5.67 0 0 0-5.66 5.68v89.37a5.66 5.66 0 1 0 11.32 0V36a5.67 5.67 0 0 0-5.66-5.68ZM295.25 0a5.67 5.67 0 0 0-5.66 5.66v32.6a5.66 5.66 0 0 0 11.32 0V5.66A5.67 5.67 0 0 0 295.25 0ZM209 104.18a5.67 5.67 0 0 0-5.66 5.66v78.89a5.66 5.66 0 0 0 11.32 0v-78.89a5.66 5.66 0 0 0-5.66-5.66ZM274.3 0a5.67 5.67 0 0 0-5.66 5.66V80A5.67 5.67 0 0 0 280 80V5.66A5.67 5.67 0 0 0 274.3 0Zm-42 77.33a5.67 5.67 0 0 0-5.67 5.67v78.3a5.66 5.66 0 0 0 11.32 0V83a5.67 5.67 0 0 0-5.66-5.67ZM123.84 0a5.67 5.67 0 0 0-5.66 5.66V80a5.66 5.66 0 1 0 11.32 0V5.66A5.67 5.67 0 0 0 123.84 0Zm-21 0a5.67 5.67 0 0 0-5.66 5.66v32.6a5.66 5.66 0 0 0 11.32 0V5.66A5.67 5.67 0 0 0 102.89 0Zm62.75 77.33A5.67 5.67 0 0 0 160 83v78.3a5.66 5.66 0 1 0 11.32 0V83a5.67 5.67 0 0 0-5.68-5.67ZM187 104.18a5.67 5.67 0 0 0-5.66 5.66v78.89a5.66 5.66 0 1 0 11.32 0v-78.89a5.67 5.67 0 0 0-5.66-5.66Zm-42.1-73.86a5.67 5.67 0 0 0-5.66 5.68v89.37a5.66 5.66 0 0 0 11.32 0V36a5.66 5.66 0 0 0-5.66-5.68ZM9.87 239.76l10.37 33.31 10.4-33.55c.54-1.76.95-3 1.22-3.67A5 5 0 0 1 33.2 234a3.75 3.75 0 0 1 2.56-.83 4.07 4.07 0 0 1 2.21.65 4.67 4.67 0 0 1 1.59 1.71 4.54 4.54 0 0 1 .58 2.15 8 8 0 0 1-.19 1.61 15.59 15.59 0 0 1-.47 1.69c-.19.56-.37 1.13-.56 1.72l-11.09 32.44c-.4 1.24-.79 2.43-1.19 3.54a15.24 15.24 0 0 1-1.37 2.95 6.39 6.39 0 0 1-2.08 2.09 5.86 5.86 0 0 1-3.17.81 5.94 5.94 0 0 1-3.17-.8 6.27 6.27 0 0 1-2.09-2.1 15.9 15.9 0 0 1-1.39-3c-.4-1.11-.79-2.29-1.19-3.53L1.28 243c-.19-.59-.38-1.17-.58-1.73a15.2 15.2 0 0 1-.5-1.83 8.89 8.89 0 0 1-.2-1.66 4.61 4.61 0 0 1 1.28-3.15 4.15 4.15 0 0 1 3.22-1.43 3.66 3.66 0 0 1 3.36 1.58 22.4 22.4 0 0 1 2.01 4.98ZM69.6 233.15a22.91 22.91 0 0 1 12.23 3.14 19.77 19.77 0 0 1 7.73 8.91 32.56 32.56 0 0 1 2.62 13.57 36.18 36.18 0 0 1-1.43 10.48 23.25 23.25 0 0 1-4.31 8.16 18.87 18.87 0 0 1-7.06 5.29 23.74 23.74 0 0 1-9.59 1.83 23.59 23.59 0 0 1-9.62-1.88 19.1 19.1 0 0 1-7.09-5.31 23.11 23.11 0 0 1-4.3-8.23 36.16 36.16 0 0 1-1.45-10.4 34.61 34.61 0 0 1 1.52-10.51 22.85 22.85 0 0 1 4.39-8.13 18.93 18.93 0 0 1 7-5.14 23.54 23.54 0 0 1 9.36-1.78Zm13.18 25.56a25.14 25.14 0 0 0-1.62-9.46 12.93 12.93 0 0 0-4.64-6.05 12 12 0 0 0-6.92-2 11.69 11.69 0 0 0-5.14 1.14 11.35 11.35 0 0 0-4.06 3.3 16.26 16.26 0 0 0-2.68 5.54 26.87 26.87 0 0 0-1 7.58 27.48 27.48 0 0 0 1 7.65A16 16 0 0 0 60.5 272a11.71 11.71 0 0 0 4.12 3.37 11.56 11.56 0 0 0 5.11 1.12 11.78 11.78 0 0 0 6.54-1.93 13.13 13.13 0 0 0 4.75-6 24.81 24.81 0 0 0 1.76-9.85ZM103.69 278.4v-39.15a7 7 0 0 1 1.28-4.57 4.13 4.13 0 0 1 3.31-1.53 4.26 4.26 0 0 1 3.39 1.51 6.89 6.89 0 0 1 1.3 4.59v39.15a6.92 6.92 0 0 1-1.3 4.6 4.22 4.22 0 0 1-3.39 1.53A4.13 4.13 0 0 1 105 283a7 7 0 0 1-1.31-4.6ZM165.55 268a14.15 14.15 0 0 1-1.08 5.13 18.75 18.75 0 0 1-3.39 5.43 17.41 17.41 0 0 1-5.9 4.32 19.75 19.75 0 0 1-8.37 1.66 26.82 26.82 0 0 1-6.59-.75 17.49 17.49 0 0 1-5.39-2.32 18.42 18.42 0 0 1-4.45-4.15 24.78 24.78 0 0 1-3.09-5.23 29 29 0 0 1-1.93-6.19 37 37 0 0 1-.64-7 33.39 33.39 0 0 1 1.61-10.74 23.39 23.39 0 0 1 4.61-8.12 20.13 20.13 0 0 1 7-5.14 21.26 21.26 0 0 1 8.59-1.76 20.16 20.16 0 0 1 9.9 2.41 18.34 18.34 0 0 1 6.65 5.95 12.36 12.36 0 0 1 2.31 6.69 4.56 4.56 0 0 1-1.12 3.05 3.46 3.46 0 0 1-2.72 1.32 3.55 3.55 0 0 1-2.67-.91 12.8 12.8 0 0 1-2-3.16 14.9 14.9 0 0 0-4.27-5.52 9.81 9.81 0 0 0-6-1.83 10.67 10.67 0 0 0-9.11 4.71q-3.37 4.71-3.38 13.39a27 27 0 0 0 1.49 9.64 12 12 0 0 0 4.25 5.74 11 11 0 0 0 6.44 1.9 10.7 10.7 0 0 0 6.76-2.15 13.07 13.07 0 0 0 4.17-6.32 10.71 10.71 0 0 1 1.47-3.2 3.19 3.19 0 0 1 2.81-1.24 3.79 3.79 0 0 1 2.84 1.25 4.38 4.38 0 0 1 1.2 3.14ZM207.26 241.76h-20.9V254h19.24a4.38 4.38 0 0 1 3.17 1 3.66 3.66 0 0 1 1 2.73 3.79 3.79 0 0 1-1 2.76 4.23 4.23 0 0 1-3.19 1.07h-19.22v14.13H208a4.47 4.47 0 0 1 3.29 1.11 3.94 3.94 0 0 1 1.11 2.93 3.85 3.85 0 0 1-1.11 2.86 4.51 4.51 0 0 1-3.29 1.1h-25.23c-2 0-3.47-.48-4.36-1.46s-1.32-2.54-1.32-4.71v-37.35a8.89 8.89 0 0 1 .59-3.54 3.8 3.8 0 0 1 1.86-2 7.23 7.23 0 0 1 3.23-.63h24.49a4.51 4.51 0 0 1 3.29 1.07 3.74 3.74 0 0 1 1.08 2.79 3.79 3.79 0 0 1-1.08 2.83 4.46 4.46 0 0 1-3.29 1.07ZM232.55 239.25v36.16h19.5a5 5 0 0 1 3.57 1.19 3.94 3.94 0 0 1 1.25 3 3.86 3.86 0 0 1-1.23 3 5.15 5.15 0 0 1-3.59 1.13h-23.22c-2.09 0-3.6-.48-4.52-1.46s-1.37-2.54-1.37-4.71v-38.31a6.87 6.87 0 0 1 1.31-4.57 4.31 4.31 0 0 1 3.45-1.53 4.5 4.5 0 0 1 3.51 1.51 6.73 6.73 0 0 1 1.34 4.59ZM284.08 233.15a24.46 24.46 0 0 1 12.68 3.14 19.94 19.94 0 0 1 8 8.91 31.63 31.63 0 0 1 2.72 13.57 34.82 34.82 0 0 1-1.48 10.48 22.76 22.76 0 0 1-4.47 8.16 19.38 19.38 0 0 1-7.32 5.29 27.64 27.64 0 0 1-19.91-.05 19.87 19.87 0 0 1-7.35-5.31 22.9 22.9 0 0 1-4.45-8.23 34.81 34.81 0 0 1-1.5-10.4 33.4 33.4 0 0 1 1.57-10.51 22.52 22.52 0 0 1 4.55-8.13 19.62 19.62 0 0 1 7.25-5.14 25.16 25.16 0 0 1 9.71-1.78Zm13.67 25.56a24.33 24.33 0 0 0-1.69-9.46 13 13 0 0 0-4.81-6.05 12.73 12.73 0 0 0-7.17-2 12.47 12.47 0 0 0-5.33 1.14 11.55 11.55 0 0 0-4.2 3.3 16 16 0 0 0-2.79 5.54 26.13 26.13 0 0 0-1 7.58 26.73 26.73 0 0 0 1 7.65 15.9 15.9 0 0 0 2.88 5.68 12.12 12.12 0 0 0 4.28 3.37 12.33 12.33 0 0 0 5.29 1.12 12.52 12.52 0 0 0 6.79-1.98 13.24 13.24 0 0 0 4.93-6 24.08 24.08 0 0 0 1.82-9.89ZM347.39 241.76h-18.94v12.71h15.83a4.6 4.6 0 0 1 3.29 1 3.65 3.65 0 0 1 1.09 2.76 3.54 3.54 0 0 1-1.11 2.75 4.64 4.64 0 0 1-3.27 1h-15.83v16.42a6.81 6.81 0 0 1-1.34 4.62 4.71 4.71 0 0 1-6.93 0 6.76 6.76 0 0 1-1.34-4.6v-38.25a8.69 8.69 0 0 1 .61-3.54 3.89 3.89 0 0 1 1.93-2 7.73 7.73 0 0 1 3.35-.63h22.66a4.8 4.8 0 0 1 3.42 1.07 3.7 3.7 0 0 1 1.12 2.79 3.74 3.74 0 0 1-1.12 2.83 4.76 4.76 0 0 1-3.42 1.07ZM393.22 242.3h-10.49v36.1a6.81 6.81 0 0 1-1.33 4.6 4.34 4.34 0 0 1-3.43 1.51 4.41 4.41 0 0 1-3.48-1.53 6.76 6.76 0 0 1-1.34-4.6V242.3h-10.49a5.17 5.17 0 0 1-3.66-1.13 4 4 0 0 1-1.2-3 3.85 3.85 0 0 1 1.25-3 5.2 5.2 0 0 1 3.61-1.12h30.56a5.22 5.22 0 0 1 3.71 1.15 4 4 0 0 1 1.21 3 3.9 3.9 0 0 1-1.23 3 5.31 5.31 0 0 1-3.69 1.1Z" />
  </g>
</svg>